<mxfile host="Electron" modified="2024-06-29T02:00:27.142Z" agent="Mozilla/5.0 (Windows NT 10.0; Win64; x64) AppleWebKit/537.36 (KHTML, like Gecko) draw.io/24.2.5 Chrome/120.0.6099.109 Electron/28.1.0 Safari/537.36" etag="axU31koKSMhciMdiz0Ej" version="24.2.5" type="device">
  <diagram name="Page-1" id="YN0bvNORWT7Y2drGRUYN">
    <mxGraphModel dx="1098" dy="1198" grid="1" gridSize="10" guides="1" tooltips="1" connect="1" arrows="1" fold="1" page="1" pageScale="1" pageWidth="850" pageHeight="1100" math="0" shadow="0">
      <root>
        <mxCell id="0" />
        <mxCell id="1" parent="0" />
        <mxCell id="70JANNv7bCs4M7J6P-gu-6" value="Executiuon environment" style="rounded=0;whiteSpace=wrap;html=1;dashed=1;fillColor=none;labelPosition=center;verticalLabelPosition=bottom;align=center;verticalAlign=top;" vertex="1" parent="1">
          <mxGeometry x="830" y="390" width="176" height="150" as="geometry" />
        </mxCell>
        <mxCell id="70JANNv7bCs4M7J6P-gu-9" style="edgeStyle=orthogonalEdgeStyle;rounded=0;orthogonalLoop=1;jettySize=auto;html=1;entryX=0;entryY=0.5;entryDx=0;entryDy=0;" edge="1" parent="1" source="70JANNv7bCs4M7J6P-gu-2" target="70JANNv7bCs4M7J6P-gu-6">
          <mxGeometry relative="1" as="geometry" />
        </mxCell>
        <mxCell id="70JANNv7bCs4M7J6P-gu-2" value="Lambda Service" style="rounded=0;whiteSpace=wrap;html=1;" vertex="1" parent="1">
          <mxGeometry x="597" y="450" width="120" height="30" as="geometry" />
        </mxCell>
        <mxCell id="70JANNv7bCs4M7J6P-gu-8" style="edgeStyle=orthogonalEdgeStyle;rounded=0;orthogonalLoop=1;jettySize=auto;html=1;" edge="1" parent="1" source="70JANNv7bCs4M7J6P-gu-3" target="70JANNv7bCs4M7J6P-gu-2">
          <mxGeometry relative="1" as="geometry" />
        </mxCell>
        <mxCell id="70JANNv7bCs4M7J6P-gu-3" value="API Gateway" style="sketch=0;points=[[0,0,0],[0.25,0,0],[0.5,0,0],[0.75,0,0],[1,0,0],[0,1,0],[0.25,1,0],[0.5,1,0],[0.75,1,0],[1,1,0],[0,0.25,0],[0,0.5,0],[0,0.75,0],[1,0.25,0],[1,0.5,0],[1,0.75,0]];outlineConnect=0;fontColor=#232F3E;fillColor=#8C4FFF;strokeColor=#ffffff;dashed=0;verticalLabelPosition=bottom;verticalAlign=top;align=center;html=1;fontSize=12;fontStyle=0;aspect=fixed;shape=mxgraph.aws4.resourceIcon;resIcon=mxgraph.aws4.api_gateway;" vertex="1" parent="1">
          <mxGeometry x="410" y="426" width="78" height="78" as="geometry" />
        </mxCell>
        <mxCell id="70JANNv7bCs4M7J6P-gu-7" value="HTTP POST /books" style="edgeStyle=orthogonalEdgeStyle;rounded=0;orthogonalLoop=1;jettySize=auto;html=1;" edge="1" parent="1" source="70JANNv7bCs4M7J6P-gu-4" target="70JANNv7bCs4M7J6P-gu-3">
          <mxGeometry relative="1" as="geometry" />
        </mxCell>
        <mxCell id="70JANNv7bCs4M7J6P-gu-4" value="Client app" style="sketch=0;outlineConnect=0;fontColor=#232F3E;gradientColor=none;fillColor=#232F3D;strokeColor=none;dashed=0;verticalLabelPosition=bottom;verticalAlign=top;align=center;html=1;fontSize=12;fontStyle=0;aspect=fixed;pointerEvents=1;shape=mxgraph.aws4.client;" vertex="1" parent="1">
          <mxGeometry x="90" y="426" width="78" height="76" as="geometry" />
        </mxCell>
        <mxCell id="70JANNv7bCs4M7J6P-gu-5" value="Lambda&lt;div&gt;CreateBook&lt;/div&gt;" style="sketch=0;points=[[0,0,0],[0.25,0,0],[0.5,0,0],[0.75,0,0],[1,0,0],[0,1,0],[0.25,1,0],[0.5,1,0],[0.75,1,0],[1,1,0],[0,0.25,0],[0,0.5,0],[0,0.75,0],[1,0.25,0],[1,0.5,0],[1,0.75,0]];outlineConnect=0;fontColor=#232F3E;fillColor=#ED7100;strokeColor=#ffffff;dashed=0;verticalLabelPosition=bottom;verticalAlign=top;align=center;html=1;fontSize=12;fontStyle=1;aspect=fixed;shape=mxgraph.aws4.resourceIcon;resIcon=mxgraph.aws4.lambda;" vertex="1" parent="1">
          <mxGeometry x="879" y="410" width="78" height="78" as="geometry" />
        </mxCell>
        <mxCell id="70JANNv7bCs4M7J6P-gu-10" value="&lt;div&gt;{&lt;/div&gt;&lt;div&gt;&lt;span style=&quot;white-space-collapse: collapse;&quot;&gt;&lt;span style=&quot;white-space-collapse: preserve;&quot;&gt;&#x9;&lt;/span&gt;&quot;name&quot;: &quot;Clean architecture&quot;,&lt;/span&gt;&lt;/div&gt;&lt;div&gt;&lt;span style=&quot;white-space-collapse: collapse;&quot;&gt;&lt;span style=&quot;white-space-collapse: preserve;&quot;&gt;&#x9;&lt;/span&gt;&quot;rating&quot;: 5,&lt;/span&gt;&lt;/div&gt;&lt;div&gt;&lt;span style=&quot;white-space-collapse: collapse;&quot;&gt;&lt;span style=&quot;white-space-collapse: preserve;&quot;&gt;&#x9;&lt;/span&gt;&quot;author&quot;: &quot;Uncle BOB&quot;,&lt;/span&gt;&lt;/div&gt;&lt;div&gt;&lt;span style=&quot;white-space-collapse: collapse;&quot;&gt;&lt;span style=&quot;white-space-collapse: preserve;&quot;&gt;&#x9;&lt;/span&gt;&quot;price&quot;: 49.99&lt;/span&gt;&lt;/div&gt;&lt;div&gt;}&lt;/div&gt;" style="text;html=1;align=left;verticalAlign=middle;resizable=0;points=[];autosize=1;strokeColor=none;fillColor=none;" vertex="1" parent="1">
          <mxGeometry x="190" y="350" width="200" height="100" as="geometry" />
        </mxCell>
        <mxCell id="70JANNv7bCs4M7J6P-gu-12" style="edgeStyle=orthogonalEdgeStyle;rounded=0;orthogonalLoop=1;jettySize=auto;html=1;entryX=0.5;entryY=0;entryDx=0;entryDy=0;" edge="1" parent="1" source="70JANNv7bCs4M7J6P-gu-11" target="70JANNv7bCs4M7J6P-gu-6">
          <mxGeometry relative="1" as="geometry" />
        </mxCell>
        <mxCell id="70JANNv7bCs4M7J6P-gu-11" value="Code&lt;div&gt;Repository&lt;/div&gt;" style="ellipse;shape=cloud;whiteSpace=wrap;html=1;" vertex="1" parent="1">
          <mxGeometry x="858" y="210" width="120" height="80" as="geometry" />
        </mxCell>
        <mxCell id="70JANNv7bCs4M7J6P-gu-13" value="ZIP or Elastic Container Registry (ECS)" style="text;html=1;align=center;verticalAlign=middle;resizable=0;points=[];autosize=1;strokeColor=none;fillColor=none;" vertex="1" parent="1">
          <mxGeometry x="803" y="180" width="230" height="30" as="geometry" />
        </mxCell>
        <mxCell id="70JANNv7bCs4M7J6P-gu-14" value="Download code" style="rounded=0;whiteSpace=wrap;html=1;fillColor=#dae8fc;strokeColor=#6c8ebf;" vertex="1" parent="1">
          <mxGeometry x="100" y="580" width="200" height="40" as="geometry" />
        </mxCell>
        <mxCell id="70JANNv7bCs4M7J6P-gu-15" value="Start new execution environment" style="rounded=0;whiteSpace=wrap;html=1;fillColor=#dae8fc;strokeColor=#6c8ebf;" vertex="1" parent="1">
          <mxGeometry x="330" y="580" width="200" height="40" as="geometry" />
        </mxCell>
        <mxCell id="70JANNv7bCs4M7J6P-gu-16" value="Invoke code outside of handler()" style="rounded=0;whiteSpace=wrap;html=1;fillColor=#f8cecc;strokeColor=#b85450;" vertex="1" parent="1">
          <mxGeometry x="560" y="580" width="200" height="40" as="geometry" />
        </mxCell>
        <mxCell id="70JANNv7bCs4M7J6P-gu-17" value="Execute handler()" style="rounded=0;whiteSpace=wrap;html=1;fillColor=#d5e8d4;strokeColor=#82b366;" vertex="1" parent="1">
          <mxGeometry x="790" y="580" width="200" height="40" as="geometry" />
        </mxCell>
        <mxCell id="70JANNv7bCs4M7J6P-gu-22" value="AWS Lambda Cold Start" style="shape=curlyBracket;whiteSpace=wrap;html=1;rounded=1;labelPosition=center;verticalLabelPosition=bottom;align=center;verticalAlign=top;flipH=0;flipV=1;direction=south;" vertex="1" parent="1">
          <mxGeometry x="100" y="640" width="430" height="20" as="geometry" />
        </mxCell>
        <mxCell id="70JANNv7bCs4M7J6P-gu-23" value="Code Initialization" style="shape=curlyBracket;whiteSpace=wrap;html=1;rounded=1;labelPosition=center;verticalLabelPosition=bottom;align=center;verticalAlign=top;flipH=0;flipV=1;direction=south;" vertex="1" parent="1">
          <mxGeometry x="560" y="640" width="200" height="20" as="geometry" />
        </mxCell>
      </root>
    </mxGraphModel>
  </diagram>
</mxfile>
